<svg width="0" height="0" class="hidden">
  <symbol id="arrow_circle_down" xmlns="http://www.w3.org/2000/svg" viewBox="0 0 20 20">
    <g>
      <g>
        <path d="M10,0C4.5,0,0,4.5,0,10c0,5.5,4.5,10,10,10c5.5,0,10-4.5,10-10C20,4.5,15.5,0,10,0z M13.7,9.8l-2.9,2.9
			c-0.4,0.4-1.1,0.4-1.5,0L6.3,9.8c-0.4-0.4-0.4-1.1,0-1.5c0.4-0.4,1.1-0.4,1.5,0l2.2,2.1l2.2-2.1c0.4-0.4,1.1-0.4,1.5,0
			C14.1,8.7,14.1,9.4,13.7,9.8z"></path>
      </g>
    </g>
  </symbol>
  <symbol id="home" xmlns="http://www.w3.org/2000/svg" viewBox="0 0 14 16">
    <g>
      <g>
        <path d="M13.7,5.3l-6-5c0,0,0,0,0,0C7.6,0.2,7.5,0.1,7.4,0.1c0,0-0.1,0-0.1,0C7.2,0,7.1,0,7,0C6.9,0,6.8,0,6.7,0.1
			c0,0-0.1,0-0.1,0C6.5,0.1,6.4,0.2,6.3,0.3c0,0,0,0,0,0l-6,5C0.1,5.5,0,5.7,0,6c0,0,0,0,0,0v9c0,0.6,0.4,1,1,1h5v-1c0,0,0,0,0,0v-5
			c0-0.6,0.4-1,1-1h0c0.6,0,1,0.4,1,1v6h5c0.6,0,1-0.4,1-1v-9C14,5.8,13.9,5.5,13.7,5.3z"></path>
      </g>
    </g>
  </symbol>
  <symbol id="callback" xmlns="http://www.w3.org/2000/svg" viewBox="0 0 20 15">
    <g>
      <path d="M18.2,1.9c-0.4-0.4-1-0.5-1.4-0.1c-0.4,0.4-0.5,1-0.1,1.4C17.5,4.4,18,5.9,18,7.5s-0.5,3-1.3,4.2
		c-0.3,0.4-0.3,1.1,0.1,1.4c0.4,0.3,1,0.3,1.4-0.1c1.1-1.6,1.8-3.5,1.8-5.6C20,5.4,19.3,3.5,18.2,1.9z"></path>
      <path d="M13.6,4.5c-0.3,0.4-0.3,0.8-0.1,1.2C13.8,6.3,14,6.9,14,7.5s-0.2,1.2-0.5,1.7c-0.2,0.2-0.3,0.5-0.2,0.8
		c0.1,0.5,0.6,0.9,1.2,0.8c0.3,0,0.5-0.2,0.6-0.4c0.6-0.9,0.9-1.9,0.9-3c0-1-0.3-2.1-0.9-2.9C14.6,4.1,14,4.1,13.6,4.5z"></path>
      <path d="M8,0H2C0.9,0,0,0.9,0,2v11c0,1.1,0.9,2,2,2h6c1.1,0,2-0.9,2-2V2C10,0.9,9.1,0,8,0z M8,13H2V2h6V13z"></path>
      <path d="M5,12c0.6,0,1-0.4,1-1s-0.4-1-1-1s-1,0.4-1,1S4.4,12,5,12z"></path>
    </g>
  </symbol>
  <symbol id="menu" xmlns="http://www.w3.org/2000/svg" viewBox="0 0 17 14">
    <g>
      <g>
        <path d="M16,0H1C0.4,0,0,0.4,0,1c0,0.6,0.4,1,1,1h15c0.6,0,1-0.4,1-1C17,0.4,16.6,0,16,0z M1,8h9c0.6,0,1-0.4,1-1
			c0-0.6-0.4-1-1-1H1C0.4,6,0,6.4,0,7C0,7.6,0.4,8,1,8z M14,12H1c-0.6,0-1,0.4-1,1s0.4,1,1,1h13c0.6,0,1-0.4,1-1S14.6,12,14,12z"></path>
      </g>
    </g>
  </symbol>
  <symbol id="search" xmlns="http://www.w3.org/2000/svg" viewBox="0 0 15.8 16.3">
    <g>
      <g>
        <path d="M15.5,14.6l-3.1-3.1c1-1.2,1.6-2.8,1.6-4.5c0-3.9-3.1-7-7-7C3.1,0,0,3.1,0,7c0,3.9,3.1,7,7,7
			c1.4,0,2.8-0.4,3.9-1.2l3.2,3.2c0.4,0.4,1,0.4,1.4,0C15.9,15.6,15.9,15,15.5,14.6z M2,7c0-2.8,2.2-5,5-5c2.8,0,5,2.2,5,5
			c0,2.8-2.2,5-5,5C4.2,12,2,9.8,2,7z"></path>
      </g>
    </g>
  </symbol>
  <symbol id="user" xmlns="http://www.w3.org/2000/svg" viewBox="0 0 26.7 30">
    <g>
      <path d="M4.8,30h8.5h8.5c2.6,0,4.4-1.7,4.8-4.1c0.3-2.4-1-5.9-1.9-7C23.4,17.2,21,16,18.8,16h-5.5H7.8
		c-2.2,0-4.5,1.2-5.9,2.9c-0.9,1.1-2.3,4.6-1.9,7C0.4,28.3,2.2,30,4.8,30L4.8,30z M13.3,27H4.8c-1.3,0-2.1-0.8-1.9-2
		c0.2-2,0.9-3.7,1.4-4.4c0.8-1,2.3-1.7,3.5-1.7h5.5h5.5c1.2,0,2.7,0.7,3.5,1.7c0.5,0.7,1.2,2.3,1.4,4.4c0.1,1.2-0.6,2-1.9,2H13.3z"></path>
      <path d="M13.3,13c3.6,0,6.5-2.9,6.5-6.5c0-3.6-2.9-6.5-6.5-6.5C9.8,0,6.8,2.9,6.8,6.5C6.8,10.1,9.8,13,13.3,13L13.3,13
		z M13.3,3c1.9,0,3.5,1.6,3.5,3.5c0,1.9-1.6,3.5-3.5,3.5S9.8,8.4,9.8,6.5C9.8,4.6,11.4,3,13.3,3z"></path>
    </g>
  </symbol>
  <symbol id="cart" xmlns="http://www.w3.org/2000/svg" viewBox="0 0 36 30">
    <path d="M5,3c1.3,0,2.4,0.8,2.8,1.9c0,0,0,0.1,0,0.1l3.4,9.6c0,0.1,0,0.1,0.1,0.2l0,0l0,0c0.8,2.4,3,4.2,5.7,4.2
	c0.1,0,0.2,0,0.3,0c0.1,0,0.1,0,0.2,0H27h0.1c0,0,0.1,0,0.1,0c2.5-0.1,4.6-1.7,5.4-3.9l3.1-7.2l0,0l0,0l0,0l0,0
	C35.9,7.4,36,7,36,6.5C36,4.6,34.4,3,32.5,3h-15C16.7,3,16,3.7,16,4.5C16,5.3,16.7,6,17.5,6H29h3h0.5h0C32.8,6,33,6.2,33,6.5
	c0,0.1,0,0.1,0,0.2l0,0l0,0l-0.1,0.1l0,0l0,0l0,0l0,0l0,0l0,0l-3.2,7.4l0,0c-0.5,1-1.5,1.7-2.7,1.7h-4.8h-0.4h-4.3H17
	c-1.4,0-2.6-1-2.9-2.3l0,0l-3.2-8.8C10.4,2.1,7.9,0,5,0l0,0h0H1.5C0.7,0,0,0.7,0,1.5C0,2.3,0.7,3,1.5,3H5L5,3L5,3L5,3z M29.5,27
	c-0.8,0-1.5-0.7-1.5-1.5c0-0.8,0.7-1.5,1.5-1.5c0.8,0,1.5,0.7,1.5,1.5C31,26.3,30.3,27,29.5,27L29.5,27z M29.5,21
	C27,21,25,23,25,25.5c0,2.5,2,4.5,4.5,4.5c2.5,0,4.5-2,4.5-4.5C34,23,32,21,29.5,21L29.5,21z M13.5,27c-0.8,0-1.5-0.7-1.5-1.5
	c0-0.8,0.7-1.5,1.5-1.5c0.8,0,1.5,0.7,1.5,1.5C15,26.3,14.3,27,13.5,27L13.5,27z M13.5,21C11,21,9,23,9,25.5C9,28,11,30,13.5,30
	c2.5,0,4.5-2,4.5-4.5C18,23,16,21,13.5,21z"></path>
  </symbol>
  <symbol id="favorite" xmlns="http://www.w3.org/2000/svg" viewBox="0 0 30.1 25.1">
    <g>
      <g>
        <path d="M27.8,2.3c-3.1-3.1-8.2-3.1-11.3,0l-1.4,1.4l-1.4-1.4c-3.1-3.1-8.2-3.1-11.3,0c-3.1,3.1-3.1,8.2,0,11.3
			l10.6,10.6c1.2,1.2,3.1,1.2,4.2,0l10.6-10.6C30.9,10.5,30.9,5.5,27.8,2.3z M25.7,11.5L15.1,22.1L8,15.1l0,0l-2.1-2.1l0,0l-1.4-1.4
			c-2-2-2-5.1,0-7.1c2-2,5.1-2,7.1,0l0.7,0.7l0,0L15.1,8l3.5-3.5c2-2,5.1-2,7.1,0C27.6,6.4,27.6,9.6,25.7,11.5z"></path>
      </g>
    </g>
  </symbol>
  <symbol id="feedback" xmlns="http://www.w3.org/2000/svg" viewBox="0 0 32.4 30.9">
    <path d="M32,5.4L21.4,28.8c-0.7,1.4-2.2,2.2-3.7,2.1c-0.1,0-0.1,0-0.1,0c-1.6-0.1-2.8-1.2-3.2-2.6l-2.6-6.3
	c-0.2-0.8,0.2-1.5,1-1.7c0.8-0.2,1.6,0.2,1.8,1l2.6,6.3c0.2,0.5,0.5,0.5,0.7,0.6c0.2,0,0.6,0,0.8-0.5L29.3,4.2
	c0.2-0.4,0-0.8-0.1-0.9c-0.1-0.1-0.4-0.4-0.9-0.3L3.5,10.2C3.1,10.4,3,10.8,3,11c0,0.2,0,0.6,0.5,0.8l6.6,3.9l6.9-4.1
	c0.7-0.4,1.6-0.2,2,0.5c0.4,0.7,0.2,1.6-0.5,2l-7.4,4.3c-0.4,0.3-1,0.4-1.5,0.2l-7.4-4.2c-1.5-0.6-2.3-1.9-2.3-3.5
	c0.1-1.5,1.1-2.9,2.7-3.4l24.7-7.2c1.5-0.5,3.1,0,4.1,1.1C32.5,2.4,32.7,4,32,5.4z"></path>
  </symbol>
  <symbol id="arrow_circle_right_blue" xmlns="http://www.w3.org/2000/svg" viewBox="0 0 24 24">
    <g>
      <g>
        <path d="M11.8,8.3c-0.4-0.4-1.1-0.4-1.5,0c-0.4,0.4-0.4,1.1,0,1.5l2.1,2.2l-2.1,2.2c-0.4,0.4-0.4,1.1,0,1.5
			c0.4,0.4,1.1,0.4,1.5,0l2.9-2.9c0.4-0.4,0.4-1.1,0-1.5L11.8,8.3z M12,0C5.4,0,0,5.4,0,12c0,6.6,5.4,12,12,12s12-5.4,12-12
			C24,5.4,18.6,0,12,0z M12,22C6.5,22,2,17.5,2,12C2,6.5,6.5,2,12,2c5.5,0,10,4.5,10,10C22,17.5,17.5,22,12,22z"></path>
      </g>
    </g>
  </symbol>
  <symbol id="arrow_right_grey" xmlns="http://www.w3.org/2000/svg" viewBox="0 0 16.2 12.5">
    <g>
      <g>
        <path d="M15.9,5.5l-5.2-5.2c-0.4-0.4-1-0.4-1.4,0c-0.4,0.4-0.4,1,0,1.4l3.5,3.5H1v0c-0.6,0-1,0.4-1,1c0,0.6,0.4,1,1,1
			h11.8l-3.5,3.5c-0.4,0.4-0.4,1,0,1.4c0.4,0.4,1,0.4,1.4,0l5.2-5.2C16.3,6.6,16.3,5.9,15.9,5.5z"></path>
      </g>
    </g>
  </symbol>
  <symbol id="favor_small" xmlns="http://www.w3.org/2000/svg" viewBox="0 0 22 19">
    <g>
      <g>
        <path d="M20.2,1.8c-2.4-2.4-6.2-2.4-8.5,0L11,2.5l-0.7-0.7c-2.4-2.4-6.2-2.4-8.5,0c-2.4,2.4-2.4,6.3,0,8.7l2.1,2.2
			c0,0,0,0,0,0l5.7,5.8c0.8,0.8,2.1,0.8,2.8,0l7.8-7.9C22.6,8.1,22.6,4.2,20.2,1.8z M18.1,8.3L11,15.5L3.9,8.3
			C2.7,7.1,2.7,5.2,3.9,4C5.1,2.8,7,2.8,8.2,4L11,6.8L13.8,4c1.2-1.2,3.1-1.2,4.3,0C19.3,5.2,19.3,7.1,18.1,8.3z"></path>
      </g>
    </g>
  </symbol>
  <symbol id="arrow_left_white" xmlns="http://www.w3.org/2000/svg" viewBox="0 0 16.2 12.5">
    <g>
      <g>
        <path d="M15.2,5.2L15.2,5.2l-11.8,0l3.5-3.5c0.4-0.4,0.4-1,0-1.4c-0.4-0.4-1-0.4-1.4,0L0.3,5.5c-0.4,0.4-0.4,1,0,1.4
			l5.2,5.2c0.4,0.4,1,0.4,1.4,0c0.4-0.4,0.4-1,0-1.4L3.4,7.2h11.8c0.6,0,1-0.4,1-1C16.2,5.7,15.8,5.2,15.2,5.2z"></path>
      </g>
    </g>
  </symbol>
  <symbol id="arrow_right_white" xmlns="http://www.w3.org/2000/svg" viewBox="0 0 16.2 12.5">
    <g>
      <g>
        <path d="M1,5.2L1,5.2l11.8,0L9.3,1.7c-0.4-0.4-0.4-1,0-1.4c0.4-0.4,1-0.4,1.4,0l5.2,5.2c0.4,0.4,0.4,1,0,1.4l-5.2,5.2
			c-0.4,0.4-1,0.4-1.4,0c-0.4-0.4-0.4-1,0-1.4l3.5-3.5H1c-0.6,0-1-0.4-1-1C0,5.7,0.4,5.2,1,5.2z"></path>
      </g>
    </g>
  </symbol>
  <symbol id="arrow_circle_right_white" xmlns="http://www.w3.org/2000/svg" viewBox="0 0 20 20">
    <g>
      <g>
        <path d="M10,0C4.5,0,0,4.5,0,10c0,5.5,4.5,10,10,10c5.5,0,10-4.5,10-10C20,4.5,15.5,0,10,0z M12.7,10.8l-2.9,2.9
			c-0.4,0.4-1.1,0.4-1.5,0c-0.4-0.4-0.4-1.1,0-1.5l2.1-2.2L8.3,7.8c-0.4-0.4-0.4-1.1,0-1.5c0.4-0.4,1.1-0.4,1.5,0l2.9,2.9
			C13.1,9.7,13.1,10.3,12.7,10.8z"></path>
      </g>
    </g>
  </symbol>
  <symbol id="play" xmlns="http://www.w3.org/2000/svg" viewBox="0 0 19 24">
    <path d="M1.3,0C0.6,0.1,0,0.7,0,1.5v21C0,23.3,0.7,24,1.5,24c0.3,0,0.6-0.1,0.8-0.2l16-10.5c0.7-0.5,0.9-1.4,0.4-2.1
	c-0.1-0.2-0.3-0.3-0.4-0.4L2.3,0.2C2,0.1,1.7,0,1.3,0z"></path>
  </symbol>
  <symbol id="copyright" xmlns="http://www.w3.org/2000/svg" viewBox="0 0 38 38">
    <g>
      <g>
        <path d="M19,23c-2.2,0-4-1.8-4-4c0-2.2,1.8-4,4-4c1.2,0,2.2,0.5,2.9,1.3l2.6-1.5C23.3,13.1,21.3,12,19,12
			c-3.9,0-7,3.1-7,7s3.1,7,7,7c2.7,0,5-1.5,6.2-3.7l-2.9-1.1C21.6,22.3,20.4,23,19,23z M19,0C8.5,0,0,8.5,0,19s8.5,19,19,19
			c10.5,0,19-8.5,19-19S29.5,0,19,0z M19,35c-8.8,0-16-7.2-16-16c0-8.8,7.2-16,16-16c8.8,0,16,7.2,16,16C35,27.8,27.8,35,19,35z"></path>
      </g>
    </g>
  </symbol>
  <symbol id="logo_stek" xmlns="http://www.w3.org/2000/svg" viewBox="0 0 39 38">
    <path d="M14.6,24.9c0.3,0.2,0.4,0.5,0.4,0.8c0,0.3-0.1,0.6-0.3,0.9l0,0c-0.2,0.3-0.5,0.4-0.8,0.4
	c-0.3,0-0.7-0.1-0.9-0.3l0,0c-0.6-0.5-1.1-1-1.6-1.6c-0.5-0.6-0.9-1.2-1.2-1.9c-0.3-0.7-0.6-1.4-0.7-2.1c-0.2-0.7-0.3-1.5-0.3-2.2
	c0-1,0.1-1.9,0.4-2.8c0.3-0.9,0.7-1.8,1.2-2.6c0.5-0.8,1.2-1.5,1.9-2.2c0.7-0.6,1.5-1.2,2.4-1.6c0.3-0.1,0.7-0.2,1-0.1
	c0.3,0.1,0.6,0.3,0.7,0.6c0.2,0.3,0.2,0.6,0.1,0.9c-0.1,0.3-0.3,0.6-0.6,0.7c-0.7,0.3-1.3,0.7-1.8,1.2c-0.6,0.5-1,1-1.4,1.6
	c-0.4,0.6-0.7,1.3-0.9,1.9c-0.2,0.7-0.3,1.4-0.3,2.1c0,0.6,0.1,1.1,0.2,1.7c0.1,0.6,0.3,1.1,0.6,1.6c0.3,0.5,0.6,1,0.9,1.4
	C13.7,24.2,14.1,24.6,14.6,24.9L14.6,24.9L14.6,24.9z M36.5,20.8c-0.1,0.6-0.2,1.1-0.3,1.6c-0.1,0.5-0.3,1.1-0.4,1.6
	c-0.2,0.5-0.4,1-0.6,1.5c-0.2,0.5-0.5,1-0.8,1.5c-0.6,1-1.3,2-2.1,2.8c-0.8,0.9-1.7,1.7-2.6,2.4c-1,0.7-2,1.3-3.1,1.8
	c-1.1,0.5-2.2,0.9-3.4,1.1l-0.4,0.1l-0.4,0.1L22,35.4l-0.4,0.1c-0.2,0-0.3,0-0.5,0c-0.2,0-0.3,0-0.5,0c-0.2,0-0.3,0-0.5,0
	c-0.1,0-0.3,0-0.5,0c-0.9,0-1.8-0.1-2.6-0.2c-0.9-0.1-1.7-0.3-2.5-0.6c-0.8-0.3-1.6-0.6-2.4-0.9c-0.8-0.4-1.5-0.8-2.2-1.3
	c-0.3-0.2-0.6-0.3-0.9-0.2c-0.3,0.1-0.6,0.2-0.8,0.5c-0.2,0.3-0.3,0.6-0.2,0.9c0.1,0.3,0.2,0.6,0.5,0.8c0.8,0.6,1.7,1,2.6,1.5
	c0.9,0.4,1.8,0.8,2.8,1.1c0.9,0.3,1.9,0.5,2.9,0.7c1,0.1,2,0.2,3,0.2c0.2,0,0.3,0,0.5,0c0.2,0,0.4,0,0.6,0c0.2,0,0.4,0,0.6,0
	c0.2,0,0.4,0,0.6-0.1c0.2,0,0.3,0,0.5-0.1c0.2,0,0.3,0,0.5-0.1c0.2,0,0.3-0.1,0.5-0.1l0.5-0.1c1.4-0.3,2.7-0.7,3.9-1.3
	c1.3-0.6,2.4-1.2,3.5-2c1.1-0.8,2.1-1.7,3-2.7c0.9-1,1.7-2.1,2.4-3.3c0.3-0.5,0.6-1.1,0.9-1.7c0.3-0.6,0.5-1.2,0.7-1.8
	c0.2-0.6,0.4-1.2,0.5-1.8c0.1-0.6,0.2-1.2,0.3-1.9c0-0.3-0.1-0.7-0.3-0.9c-0.2-0.2-0.5-0.4-0.8-0.4c-0.3,0-0.7,0.1-0.9,0.3
	C36.7,20.2,36.5,20.5,36.5,20.8L36.5,20.8z M7.1,30.3c-0.7-0.8-1.4-1.6-1.9-2.5c-0.6-0.9-1-1.8-1.4-2.8c-0.4-0.9-0.7-1.9-0.9-3
	c-0.2-1-0.3-2-0.3-3.1c0-1.3,0.2-2.6,0.4-3.8c0.3-1.3,0.7-2.4,1.3-3.6c0.6-1.1,1.3-2.2,2.1-3.2c0.8-1,1.8-1.9,2.8-2.6l0,0
	C9.5,5.6,9.7,5.3,9.7,5c0-0.3,0-0.6-0.2-0.9l0,0C9.3,3.8,9,3.7,8.7,3.6c-0.3,0-0.7,0-0.9,0.2c-1.2,0.9-2.3,1.9-3.2,3
	C3.5,8,2.7,9.3,2,10.6c-0.7,1.3-1.2,2.7-1.5,4.1C0.2,16.1,0,17.5,0,19c0,1.2,0.1,2.4,0.3,3.5c0.2,1.2,0.6,2.3,1,3.4
	c0.5,1.1,1,2.2,1.7,3.2c0.7,1,1.4,2,2.2,2.8c0.2,0.2,0.6,0.4,0.9,0.4c0.3,0,0.6-0.1,0.9-0.3l0,0c0.3-0.2,0.4-0.5,0.4-0.8
	C7.4,30.8,7.3,30.5,7.1,30.3L7.1,30.3L7.1,30.3z M12.4,4c-0.3,0.1-0.7,0.1-1,0c-0.3-0.1-0.6-0.3-0.7-0.6c-0.1-0.3-0.1-0.6,0-0.9
	c0.1-0.3,0.3-0.5,0.7-0.7c0.6-0.3,1.3-0.5,2-0.8c0.7-0.2,1.3-0.4,2-0.5c0.7-0.1,1.4-0.3,2.1-0.3C18.1,0,18.9,0,19.6,0
	c1.3,0,2.6,0.1,3.8,0.4c1.3,0.2,2.5,0.6,3.7,1.1c1.2,0.5,2.3,1.1,3.4,1.8c1.1,0.7,2.1,1.5,3,2.4c0.2,0.2,0.4,0.6,0.4,0.9
	c0,0.3-0.1,0.6-0.4,0.9c-0.2,0.2-0.6,0.4-0.9,0.4c-0.3,0-0.6-0.1-0.9-0.4c-0.8-0.8-1.7-1.5-2.6-2.1c-0.9-0.6-1.9-1.1-3-1.6
	c-1-0.4-2.1-0.7-3.2-0.9c-1.1-0.2-2.2-0.3-3.4-0.3c-0.6,0-1.2,0-1.8,0.1c-0.6,0.1-1.2,0.2-1.8,0.3c-0.6,0.1-1.2,0.3-1.8,0.5
	C13.6,3.5,13,3.7,12.4,4L12.4,4z M25.3,29.7c-0.4,0.2-0.9,0.4-1.3,0.6c-0.5,0.2-0.9,0.3-1.4,0.4c-0.5,0.1-1,0.2-1.5,0.3
	c-0.5,0.1-1,0.1-1.5,0.1c-1.2,0-2.3-0.2-3.3-0.4c-1.1-0.3-2.1-0.7-3.1-1.3c-1-0.6-1.9-1.3-2.6-2.1c-0.8-0.8-1.4-1.7-2-2.7
	c-0.2-0.3-0.4-0.5-0.7-0.6c-0.3-0.1-0.6-0.1-1,0.1c-0.3,0.2-0.5,0.4-0.6,0.7c-0.1,0.3-0.1,0.6,0.1,0.9C6.9,26.9,7.7,28,8.7,29
	c0.9,1,2,1.8,3.2,2.5c1.1,0.7,2.4,1.2,3.7,1.6c1.3,0.3,2.6,0.5,4,0.5c0.6,0,1.2,0,1.8-0.1c0.6-0.1,1.2-0.2,1.8-0.3
	c0.6-0.1,1.2-0.3,1.7-0.5c0.6-0.2,1.1-0.4,1.6-0.7l0,0c0.3-0.2,0.5-0.4,0.6-0.7c0.1-0.3,0.1-0.6-0.1-0.9v0l0,0
	c-0.2-0.3-0.4-0.5-0.7-0.6C26,29.5,25.7,29.6,25.3,29.7L25.3,29.7L25.3,29.7z M7.3,21.4c0-0.2-0.1-0.4-0.1-0.6
	c0-0.2-0.1-0.4-0.1-0.6c0-0.2,0-0.4,0-0.6c0-0.2,0-0.4,0-0.6c0-1.6,0.3-3.2,0.9-4.6c0.6-1.5,1.6-2.8,2.7-3.9c1.1-1.1,2.5-2,4-2.6
	c1.5-0.6,3.1-0.9,4.8-0.9c0.4,0,0.9,0,1.3,0.1c0.4,0,0.9,0.1,1.3,0.2c0.4,0.1,0.8,0.2,1.2,0.3c0.4,0.1,0.8,0.3,1.2,0.4
	c0.3,0.1,0.7,0.1,1,0c0.3-0.1,0.6-0.3,0.7-0.6c0.1-0.3,0.1-0.6,0-0.9c-0.1-0.3-0.3-0.5-0.7-0.7c-0.5-0.2-1-0.4-1.4-0.5
	c-0.5-0.2-1-0.3-1.5-0.4c-0.5-0.1-1-0.2-1.5-0.2c-0.5-0.1-1-0.1-1.6-0.1c-2,0-4,0.4-5.7,1.1C12,6.3,10.3,7.4,9,8.7
	c-1.4,1.3-2.5,2.9-3.3,4.7C5,15.1,4.6,17,4.6,19c0,0.2,0,0.5,0,0.7c0,0.2,0,0.5,0.1,0.7c0,0.3,0.1,0.5,0.1,0.7
	c0,0.2,0.1,0.5,0.1,0.7l0,0c0.1,0.3,0.3,0.6,0.5,0.8c0.3,0.2,0.6,0.2,0.9,0.2l0,0c0.3-0.1,0.6-0.3,0.8-0.5C7.3,22,7.4,21.7,7.3,21.4
	L7.3,21.4z M32,19c0-0.3,0.1-0.6,0.4-0.9c0.2-0.2,0.5-0.4,0.9-0.4c0.3,0,0.7,0.1,0.9,0.4c0.2,0.2,0.4,0.5,0.4,0.9c0,1-0.1,2-0.3,2.9
	c-0.2,1-0.5,1.9-0.9,2.8c-0.4,0.9-0.9,1.8-1.4,2.6c-0.6,0.8-1.2,1.6-1.9,2.2l0,0c-0.3,0.2-0.6,0.3-0.9,0.3c-0.3,0-0.6-0.1-0.9-0.4
	l0,0c-0.2-0.2-0.4-0.6-0.4-0.9c0-0.3,0.1-0.6,0.4-0.9c0.6-0.6,1.1-1.2,1.6-1.9c0.5-0.7,0.9-1.4,1.2-2.1c0.3-0.7,0.6-1.5,0.7-2.3
	C31.9,20.6,32,19.8,32,19L32,19z M19.6,11.3c-0.3,0-0.7-0.1-0.9-0.4c-0.2-0.2-0.4-0.5-0.4-0.9c0-0.3,0.1-0.6,0.4-0.9
	c0.2-0.2,0.5-0.4,0.9-0.4c0.5,0,1,0,1.5,0.1c0.5,0.1,1,0.2,1.5,0.3c0.5,0.1,1,0.3,1.4,0.5c0.5,0.2,0.9,0.5,1.3,0.7
	c0.3,0.2,0.5,0.5,0.5,0.8c0.1,0.3,0,0.6-0.2,0.9c-0.2,0.3-0.5,0.5-0.8,0.5c-0.3,0.1-0.7,0-0.9-0.2c-0.3-0.2-0.6-0.4-1-0.5
	c-0.3-0.2-0.7-0.3-1.1-0.4c-0.4-0.1-0.7-0.2-1.1-0.2C20.3,11.4,20,11.3,19.6,11.3L19.6,11.3z M27,21.5L27,21.5
	c-0.1,0.2-0.2,0.4-0.3,0.7c-0.1,0.2-0.2,0.4-0.3,0.6c-0.1,0.2-0.2,0.4-0.4,0.6c-0.1,0.2-0.3,0.4-0.4,0.5c-0.4,0.4-0.8,0.8-1.2,1.2
	c-0.5,0.3-0.9,0.6-1.5,0.9c-0.5,0.2-1.1,0.4-1.6,0.5c-0.5,0.1-1.1,0.2-1.7,0.2c-0.2,0-0.4,0-0.5,0c-0.2,0-0.3,0-0.5,0
	c-0.2,0-0.3,0-0.5-0.1c-0.2,0-0.3-0.1-0.5-0.1l0,0c-0.3-0.1-0.7,0-0.9,0.1c-0.3,0.2-0.5,0.4-0.6,0.7l0,0c-0.1,0.3,0,0.6,0.1,0.9
	c0.2,0.3,0.4,0.5,0.8,0.6c0.2,0.1,0.4,0.1,0.6,0.1c0.2,0,0.4,0.1,0.7,0.1c0.2,0,0.5,0.1,0.7,0.1c0.2,0,0.4,0,0.6,0
	c0.8,0,1.5-0.1,2.3-0.2c0.7-0.2,1.5-0.4,2.1-0.7c0.7-0.3,1.3-0.7,1.9-1.1c0.6-0.5,1.2-1,1.6-1.5c0.2-0.2,0.4-0.5,0.6-0.7
	c0.2-0.3,0.3-0.5,0.5-0.8c0.2-0.3,0.3-0.5,0.4-0.8c0.1-0.3,0.2-0.5,0.3-0.8l0,0c0.1-0.3,0.1-0.7-0.1-0.9c-0.1-0.3-0.4-0.5-0.7-0.6
	l0,0c-0.3-0.1-0.7-0.1-1,0.1C27.4,21,27.1,21.2,27,21.5z"></path>
  </symbol>
  <symbol id="facebook" xmlns="http://www.w3.org/2000/svg" viewBox="0 0 38 38.1">
    <g>
      <g>
        <path d="M19,0C8.5,0,0,8.5,0,19s8.5,19,19,19c10.5,0,19-8.5,19-19S29.5,0,19,0z M22,15c-1.1,0-2,0.9-2,2v1h2v2h-2v1v5
			h-3v-6h-2v-2h2v-2c0-1.7,1.3-3,3-3h2V15z"></path>
      </g>
    </g>
  </symbol>
  <symbol id="twitter" xmlns="http://www.w3.org/2000/svg" viewBox="0 0 38 38.1">
    <path d="M19,0C8.5,0,0,8.5,0,19s8.5,19,19,19c10.5,0,19-8.5,19-19S29.5,0,19,0z M25,16.6c0,0.1,0,0.3,0,0.4
	c0,4-3,8.6-8.6,8.6c-1.7,0-3.3-0.5-4.6-1.4c0.2,0,0.5,0,0.7,0c1.4,0,2.7-0.5,3.7-1.3c-1.3,0-2.4-0.9-2.8-2.1c0.2,0,0.4,0.1,0.6,0.1
	c0.3,0,0.5,0,0.8-0.1c-1.4-0.3-2.4-1.5-2.4-3c0,0,0,0,0,0c0.4,0.2,0.9,0.4,1.4,0.4c-0.8-0.5-1.3-1.5-1.3-2.5c0-0.6,0.1-1.1,0.4-1.5
	c1.5,1.8,3.7,3,6.2,3.1C19,17.1,19,16.8,19,16.6c0-1.7,1.3-3,3-3c0.9,0,1.6,0.4,2.2,0.9c0.7-0.1,1.3-0.4,1.9-0.7
	c-0.2,0.7-0.7,1.3-1.3,1.7c0.6-0.1,1.2-0.2,1.7-0.5C26.1,15.6,25.6,16.1,25,16.6z"></path>
  </symbol>
  <symbol id="insta" xmlns="http://www.w3.org/2000/svg" viewBox="0 0 38 38">
    <g>
      <path d="M26.9,13c-0.3-0.9-1.1-1.6-1.9-1.9c-0.6-0.2-1.2-0.3-1.9-0.4c-1.1,0-1.4-0.1-4.1-0.1c-2.7,0-3,0-4.1,0.1
		c-0.6,0-1.3,0.1-1.9,0.4c-0.9,0.3-1.6,1.1-1.9,1.9c-0.2,0.6-0.3,1.2-0.4,1.9c-0.1,1.1-0.1,1.4-0.1,4.1c0,1.3,0,2.1,0,2.6
		c0,0.6,0,0.9,0,1.5c0,0.6,0.1,1.3,0.4,1.9c0.3,0.9,1.1,1.6,1.9,1.9c0.6,0.2,1.2,0.3,1.9,0.4c1.1,0,1.4,0.1,4.1,0.1s3,0,4.1-0.1
		c0.6,0,1.3-0.1,1.9-0.4c0.9-0.3,1.6-1.1,1.9-1.9c0.2-0.6,0.3-1.2,0.4-1.9c0-1.1,0.1-1.4,0.1-4.1c0-2.7,0-3-0.1-4.1
		C27.3,14.3,27.1,13.6,26.9,13z M19,23.9c-2.7,0-4.9-2.2-4.9-4.9c0-2.7,2.2-4.9,4.9-4.9c2.7,0,4.9,2.2,4.9,4.9
		C23.9,21.7,21.7,23.9,19,23.9z M24.2,14.7c-0.6,0-1.1-0.5-1.1-1.1c0-0.6,0.5-1.1,1.1-1.1c0.6,0,1.1,0.5,1.1,1.1
		C25.3,14.2,24.8,14.7,24.2,14.7z M19,15.9c-1.7,0-3.1,1.4-3.1,3.1c0,1.7,1.4,3.1,3.1,3.1c1.7,0,3.1-1.4,3.1-3.1
		C22.1,17.3,20.7,15.9,19,15.9z M19,0C8.5,0,0,8.5,0,19c0,10.5,8.5,19,19,19c10.5,0,19-8.5,19-19C38,8.5,29.5,0,19,0z M28.9,23.1
		c0,0.8-0.2,1.7-0.5,2.4c-0.5,1.3-1.6,2.4-2.9,2.9c-0.8,0.3-1.6,0.4-2.4,0.5C22.1,29,21.7,29,19,29c-2.7,0-3.1,0-4.1-0.1
		c-0.8,0-1.7-0.2-2.4-0.5c-1.3-0.5-2.4-1.6-2.9-2.9c-0.3-0.8-0.4-1.6-0.5-2.4c0-0.5,0-0.9,0-1.5c0-0.6,0-1.3,0-2.6
		c0-2.7,0-3.1,0.1-4.1c0-0.8,0.2-1.7,0.5-2.4c0.5-1.3,1.6-2.4,2.9-2.9c0.8-0.3,1.6-0.4,2.4-0.5C15.9,9,16.3,9,19,9
		c2.7,0,3.1,0,4.1,0.1c0.8,0,1.7,0.2,2.4,0.5c1.3,0.5,2.4,1.6,2.9,2.9c0.3,0.8,0.4,1.6,0.5,2.4c0,1.1,0.1,1.4,0.1,4.1
		C29,21.7,29,22.1,28.9,23.1z"></path>
    </g>
  </symbol>
</svg>
