<svg width="55" height="54" viewBox="0 0 55 54" fill="none" xmlns="http://www.w3.org/2000/svg">
<path fill-rule="evenodd" clip-rule="evenodd" d="M0.891602 26.616C0.891602 11.9164 12.808 0 27.5076 0C42.2072 0 54.1236 11.9164 54.1236 26.616C54.1236 41.3156 42.2072 53.232 27.5076 53.232C12.808 53.232 0.891602 41.3156 0.891602 26.616ZM27.509 12.4208C23.6537 12.4208 23.1699 12.4377 21.6557 12.5066C20.1445 12.5758 19.113 12.815 18.2104 13.1661C17.2768 13.5286 16.4848 14.0136 15.6958 14.803C14.9061 15.592 14.4211 16.384 14.0574 17.3173C13.7054 18.2202 13.4659 19.252 13.3979 20.7627C13.3302 22.2768 13.3124 22.7609 13.3124 26.6162C13.3124 30.4714 13.3296 30.9537 13.3982 32.4679C13.4677 33.9791 13.7069 35.0107 14.0577 35.9132C14.4205 36.8469 14.9055 37.6389 15.6949 38.4279C16.4836 39.2175 17.2756 39.7037 18.2086 40.0663C19.1118 40.4173 20.1436 40.6566 21.6545 40.7258C23.1687 40.7947 23.6523 40.8115 27.5072 40.8115C31.3627 40.8115 31.845 40.7947 33.3592 40.7258C34.8704 40.6566 35.9031 40.4173 36.8063 40.0663C37.7397 39.7037 38.5305 39.2175 39.3192 38.4279C40.1088 37.6389 40.5938 36.8469 40.9576 35.9135C41.3065 35.0107 41.5461 33.9788 41.6171 32.4682C41.6851 30.954 41.7028 30.4714 41.7028 26.6162C41.7028 22.7609 41.6851 22.2771 41.6171 20.7629C41.5461 19.2517 41.3065 18.2202 40.9576 17.3176C40.5938 16.384 40.1088 15.592 39.3192 14.803C38.5296 14.0134 37.74 13.5283 36.8054 13.1661C35.9005 12.815 34.8684 12.5758 33.3571 12.5066C31.843 12.4377 31.3609 12.4208 27.5045 12.4208H27.509Z" fill="white"/>
<path fill-rule="evenodd" clip-rule="evenodd" d="M26.2355 14.9789C26.6135 14.9783 27.0352 14.9789 27.509 14.9789C31.2991 14.9789 31.7483 14.9925 33.2451 15.0606C34.6291 15.1238 35.3803 15.3551 35.8807 15.5494C36.5431 15.8067 37.0154 16.1143 37.5119 16.6111C38.0088 17.1079 38.3164 17.5811 38.5742 18.2436C38.7685 18.7434 39.0001 19.4945 39.0631 20.8786C39.1311 22.375 39.1459 22.8245 39.1459 26.6129C39.1459 30.4013 39.1311 30.8508 39.0631 32.3472C38.9998 33.7313 38.7685 34.4825 38.5742 34.9823C38.3169 35.6447 38.0088 36.1164 37.5119 36.6129C37.0151 37.1098 36.5434 37.4174 35.8807 37.6746C35.3809 37.8698 34.6291 38.1005 33.2451 38.1638C31.7486 38.2318 31.2991 38.2466 27.509 38.2466C23.7185 38.2466 23.2693 38.2318 21.7728 38.1638C20.3888 38.0999 19.6376 37.8686 19.1369 37.6744C18.4745 37.4171 18.0013 37.1095 17.5045 36.6127C17.0076 36.1158 16.7001 35.6438 16.4422 34.9811C16.2479 34.4813 16.0163 33.7301 15.9533 32.3461C15.8853 30.8496 15.8717 30.4001 15.8717 26.6094C15.8717 22.8186 15.8853 22.3715 15.9533 20.875C16.0166 19.491 16.2479 18.7398 16.4422 18.2394C16.6995 17.577 17.0076 17.1038 17.5045 16.607C18.0013 16.1101 18.4745 15.8026 19.1369 15.5447C19.6373 15.3495 20.3888 15.1188 21.7728 15.0552C23.0824 14.9961 23.5898 14.9783 26.2355 14.9754V14.9789ZM35.0863 17.336C34.1459 17.336 33.3829 18.0981 33.3829 19.0388C33.3829 19.9792 34.1459 20.7422 35.0863 20.7422C36.0268 20.7422 36.7898 19.9792 36.7898 19.0388C36.7898 18.0984 36.0268 17.336 35.0863 17.336ZM27.509 19.3263C23.4831 19.3263 20.219 22.5903 20.219 26.6162C20.219 30.642 23.4831 33.9046 27.509 33.9046C31.5348 33.9046 34.7977 30.642 34.7977 26.6162C34.7977 22.5903 31.5348 19.3263 27.509 19.3263Z" fill="white"/>
<path fill-rule="evenodd" clip-rule="evenodd" d="M27.509 21.8844C30.1221 21.8844 32.2407 24.0027 32.2407 26.6162C32.2407 29.2293 30.1221 31.348 27.509 31.348C24.8955 31.348 22.7772 29.2293 22.7772 26.6162C22.7772 24.0027 24.8955 21.8844 27.509 21.8844Z" fill="white"/>
</svg>
